<?xml version="1.0" standalone="no"?>
<!DOCTYPE svg PUBLIC "-//W3C//DTD SVG 20010904//EN"
 "http://www.w3.org/TR/2001/REC-SVG-20010904/DTD/svg10.dtd">
<svg version="1.0" xmlns="http://www.w3.org/2000/svg"
 width="1024.000000pt" height="1024.000000pt" viewBox="0 0 1024.000000 1024.000000"
 preserveAspectRatio="xMidYMid meet">

<g transform="translate(0.000000,1024.000000) scale(0.100000,-0.100000)"
fill="#000000" stroke="none">
<path d="M0 5120 l0 -5120 5120 0 5120 0 0 5120 0 5120 -5120 0 -5120 0 0
-5120z m5727 2661 c285 -361 396 -694 354 -1059 -19 -158 -80 -373 -141 -493
-12 -22 -19 -43 -17 -46 3 -2 29 3 58 11 225 64 552 84 719 44 l55 -13 -65 -2
c-397 -14 -602 -51 -852 -155 -342 -141 -636 -400 -778 -685 -46 -94 -73 -181
-90 -291 -19 -123 -47 -98 -49 44 -2 130 52 279 158 439 59 89 244 277 345
350 83 61 270 175 286 175 5 0 12 5 16 11 5 9 -2 10 -22 6 -16 -3 -23 -4 -16
-1 24 11 1 23 -26 13 -26 -9 -33 -5 -77 36 -31 28 -51 41 -56 34 -10 -16 -20
5 -13 28 5 15 4 15 -5 3 -5 -8 -13 -11 -17 -7 -4 4 1 16 11 27 10 11 15 20 12
20 -3 0 -50 -46 -104 -102 -54 -57 -136 -142 -183 -191 l-85 -88 -17 21 c-10
12 -18 26 -18 30 0 5 29 44 64 87 35 43 62 80 60 83 -3 2 -8 0 -12 -5 -8 -12
-69 -55 -77 -55 -22 0 47 90 164 214 31 32 61 63 66 70 6 6 12 58 14 116 2 66
7 108 14 112 9 6 9 12 0 28 -7 11 -13 25 -13 31 0 7 -8 18 -17 25 -16 11 -15
15 19 48 65 63 181 198 231 268 48 68 107 204 128 294 31 138 -6 369 -96 587
-15 37 12 13 72 -62z m-993 -588 c-15 -92 -19 -176 -19 -378 0 -282 12 -374
70 -532 l24 -67 -30 -133 c-40 -180 -49 -254 -51 -397 -2 -184 20 -321 78
-499 14 -43 24 -81 21 -84 -4 -3 -9 6 -13 21 -3 14 -11 23 -16 20 -6 -4 -15 0
-20 7 -7 10 -8 7 -5 -13 3 -20 -2 -29 -20 -37 -35 -16 -108 -14 -123 4 -9 11
-17 12 -32 4 -18 -10 -57 -4 -46 7 3 2 -10 21 -30 42 -19 20 -40 51 -48 67 -7
17 -13 24 -14 16 0 -14 19 -60 58 -141 34 -71 129 -198 212 -284 266 -277 580
-409 1091 -458 110 -11 125 -14 84 -18 l-50 -5 40 -7 c22 -4 53 -8 70 -8 36 0
24 -14 -32 -41 -80 -37 9 -19 170 35 163 54 247 79 302 90 l30 6 -35 -31 c-73
-64 -339 -258 -430 -314 -380 -233 -760 -328 -1120 -281 -143 19 -210 34 -210
48 0 5 10 6 23 3 47 -14 52 -14 65 -6 11 6 7 13 -15 28 -15 11 -41 25 -58 32
l-30 11 35 -4 c19 -2 71 -11 115 -20 188 -36 426 -31 605 14 128 33 353 117
391 146 8 6 23 14 34 19 13 5 16 9 7 12 -7 3 -19 -1 -28 -7 -8 -7 -17 -10 -21
-6 -4 3 1 12 9 19 9 6 18 31 20 54 3 35 1 42 -12 38 -8 -2 -22 0 -30 5 -12 8
-11 10 8 10 12 0 22 5 22 10 0 15 -6 14 -146 -29 -205 -63 -439 -114 -569
-124 -33 -2 -50 -2 -37 0 13 3 20 9 16 15 -5 7 -1 9 9 5 22 -8 61 14 65 36 2
12 -4 17 -18 17 -14 0 -20 5 -18 17 2 13 -6 19 -32 23 -32 5 -29 7 35 19 39 7
127 26 197 42 69 16 159 35 200 43 130 25 133 32 16 39 -431 27 -801 164
-1060 393 -53 48 -54 59 -1 18 52 -40 59 -24 14 31 -125 152 -221 299 -221
341 0 23 15 16 26 -14 25 -65 149 -232 173 -232 17 0 13 21 -19 85 -16 33 -30
64 -30 68 0 5 -6 23 -14 40 -69 153 -119 305 -136 411 -6 38 -14 74 -18 80 -3
6 -5 36 -3 67 1 34 -2 60 -8 63 -14 9 -15 435 -2 486 5 19 12 75 16 123 3 49
10 110 16 135 18 81 16 117 -3 116 -18 -2 -25 12 -9 18 4 2 5 12 1 22 -5 16
-8 15 -19 -12 -11 -27 -31 -44 -31 -27 0 6 72 152 99 200 42 73 155 237 224
324 91 115 249 293 255 287 2 -3 -4 -58 -14 -123z m-1094 -218 c0 -8 -7 -15
-15 -15 -16 0 -20 12 -8 23 11 12 23 8 23 -8z m2840 -11 c0 -17 -22 -14 -28 4
-2 7 3 12 12 12 9 0 16 -7 16 -16z m-1130 -328 c0 -2 -8 -10 -17 -17 -16 -13
-17 -12 -4 4 13 16 21 21 21 13z m135 -435 c-3 -6 -11 -11 -17 -11 -6 0 -6 6
2 15 14 17 26 13 15 -4z m-2515 -440 c-17 -239 19 -473 107 -711 161 -433 504
-855 891 -1093 236 -145 551 -253 799 -274 43 -3 87 -10 98 -14 35 -14 -124
-10 -235 6 -385 55 -721 223 -1023 515 -136 130 -213 222 -320 381 -110 163
-167 270 -223 415 -90 236 -131 466 -121 679 5 107 23 232 32 223 2 -2 0 -59
-5 -127z m557 7 c-3 -8 -6 -5 -6 6 -1 11 2 17 5 13 3 -3 4 -12 1 -19z m3414
-145 c95 -49 136 -137 126 -271 -18 -236 -174 -481 -421 -665 -106 -78 -315
-181 -332 -164 -5 5 20 21 108 67 16 9 25 19 21 23 -4 5 -3 11 2 15 22 16 49
53 34 48 -34 -12 -230 -58 -299 -71 -170 -31 -388 -27 -475 10 -35 14 -115 73
-115 84 0 3 59 5 131 3 304 -7 579 51 834 175 50 24 81 37 71 29 -11 -9 -63
-37 -117 -63 -94 -46 -97 -49 -92 -77 4 -18 1 -31 -8 -36 -9 -6 -6 -10 14 -15
84 -21 325 131 458 288 102 122 159 256 159 375 0 90 -17 140 -65 188 -61 60
-154 79 -240 48 -12 -4 -17 -3 -12 2 15 17 71 32 118 33 31 1 63 -8 100 -26z
m-231 -17 c0 -2 -7 -7 -16 -10 -8 -3 -12 -2 -9 4 6 10 25 14 25 6z m-3100
-181 c0 -21 113 -241 173 -337 167 -265 433 -497 736 -640 50 -24 91 -49 91
-57 0 -8 7 -11 20 -8 11 3 18 1 15 -3 -3 -5 4 -12 16 -15 12 -4 18 -13 15 -20
-3 -8 3 -16 12 -18 9 -3 -5 -3 -33 -1 l-50 3 35 -14 c46 -18 36 -18 -47 0 -72
15 -161 45 -230 76 -45 20 -105 17 -84 -4 13 -13 14 -57 1 -77 -6 -10 -25 -14
-64 -13 -36 1 -56 -3 -56 -10 0 -8 -4 -7 -12 1 -7 7 -18 12 -26 12 -12 0 -12
-3 -2 -15 21 -26 3 -28 -31 -5 l-31 23 7 -24 c7 -24 7 -24 -11 -4 -95 102
-155 191 -213 316 -59 125 -94 238 -162 520 -33 139 -64 260 -68 268 -15 29
-22 73 -11 66 5 -3 10 -12 10 -20z m3289 -272 c-41 -59 -124 -148 -164 -176
-16 -11 8 18 53 65 46 46 96 103 110 126 15 22 28 39 30 37 2 -2 -11 -25 -29
-52z m-2052 -85 c-3 -8 -6 -5 -6 6 -1 11 2 17 5 13 3 -3 4 -12 1 -19z m2223
-381 c0 -2 -10 -12 -22 -23 l-23 -19 19 23 c18 21 26 27 26 19z m-90 -82 c-24
-25 -48 -45 -53 -45 -9 0 83 89 93 90 2 0 -16 -20 -40 -45z m-71 -68 c-2 -2
-31 -25 -64 -51 l-60 -48 60 56 c32 30 61 53 64 51 2 -3 2 -6 0 -8z m-2189
-697 c0 -5 -5 -10 -11 -10 -5 0 -7 5 -4 10 3 6 8 10 11 10 2 0 4 -4 4 -10z
m-110 -938 c103 -52 109 -226 10 -277 -18 -9 -57 -15 -100 -15 l-70 0 0 155 0
155 63 0 c39 0 75 -6 97 -18z m380 3 c0 -12 -16 -15 -80 -15 l-80 0 0 -55 0
-55 75 0 c60 0 75 -3 75 -15 0 -12 -15 -15 -75 -15 l-75 0 0 -55 0 -54 78 -3
c109 -4 93 -22 -23 -26 l-95 -3 0 149 c0 82 3 152 7 155 3 4 48 7 100 7 76 0
93 -3 93 -15z m130 -82 c0 -122 16 -162 73 -180 47 -16 95 1 114 38 7 13 14
71 15 129 2 85 6 105 18 105 12 0 15 -20 18 -105 3 -119 -10 -153 -70 -190
-40 -24 -79 -25 -125 -3 -60 28 -73 62 -73 191 0 93 3 112 15 112 12 0 15 -18
15 -97z m508 81 c12 -8 22 -22 22 -30 0 -18 -10 -17 -34 1 -35 27 -99 18 -117
-16 -15 -28 5 -55 48 -69 77 -23 94 -33 109 -62 46 -89 -70 -165 -163 -108
-18 11 -33 27 -33 35 0 19 3 19 42 -5 40 -24 76 -25 106 -4 25 18 29 56 7 78
-8 8 -40 22 -70 30 -87 26 -110 82 -56 137 24 23 38 29 73 29 24 0 54 -7 66
-16z m160 -6 c7 -7 12 -17 12 -22 0 -6 -5 -4 -10 4 -8 13 -10 12 -10 -2 0 -11
-8 -18 -20 -18 -11 0 -20 5 -20 10 0 6 5 10 10 10 6 0 9 3 9 8 -4 24 10 29 29
10z m-18 -74 c0 -8 -6 -11 -15 -8 -8 4 -15 9 -15 13 0 4 7 8 15 8 8 0 15 -6
15 -13z"/>
<path d="M5426 6687 c3 -10 9 -15 12 -12 3 3 0 11 -7 18 -10 9 -11 8 -5 -6z"/>
<path d="M5385 6669 c-4 -6 2 -19 14 -30 22 -21 30 -12 9 10 -11 10 -9 11 7 5
18 -7 18 -6 6 9 -16 20 -27 22 -36 6z"/>
<path d="M4231 6564 c0 -11 3 -14 6 -6 3 7 2 16 -1 19 -3 4 -6 -2 -5 -13z"/>
<path d="M5860 4250 c-12 -8 -10 -10 8 -10 13 0 20 4 17 10 -7 12 -6 12 -25 0z"/>
<path d="M4264 4425 c8 -8 21 -15 28 -15 8 1 6 6 -6 15 -26 20 -42 19 -22 0z"/>
<path d="M4487 2883 c-4 -3 -7 -60 -7 -126 l0 -119 61 4 c54 4 66 9 90 36 52
58 30 170 -37 198 -35 15 -96 19 -107 7z"/>
</g>
</svg>
